PathFileType	4	(X/Y/Z)	20_2_31_p1_0-964_filt_butterworth.trc
DataRate	CameraRate	NumFrames	NumMarkers	Units	OrigDataRate	OrigDataStartFrame	OrigNumFrames
60.0	60.0	5	27	m	60.0	120	964
Frame#	Time	RHip			RKnee			RAnkle			RBigToe			RSmallToe			RHeel			LHip			LKnee			LAnkle			LBigToe			LSmallToe			LHeel			Neck			Head			Nose			RShoulder			RElbow			RWrist			RThumb			RIndex			RPinky			LShoulder			LElbow			LWrist			LThumb			LIndex			LPinky			
		X1	Y1	Z1	X2	Y2	Z2	X3	Y3	Z3	X4	Y4	Z4	X5	Y5	Z5	X6	Y6	Z6	X7	Y7	Z7	X8	Y8	Z8	X9	Y9	Z9	X10	Y10	Z10	X11	Y11	Z11	X12	Y12	Z12	X13	Y13	Z13	X14	Y14	Z14	X15	Y15	Z15	X16	Y16	Z16	X17	Y17	Z17	X18	Y18	Z18	X19	Y19	Z19	X20	Y20	Z20	X21	Y21	Z21	X22	Y22	Z22	X23	Y23	Z23	X24	Y24	Z24	X25	Y25	Z25	X26	Y26	Z26	X27	Y27	Z27	
120	2.0	0.3521878153061604	0.5961019853478778	0.9641421658189605	0.34961127671972225	0.7079132099163692	1.3519591546306347	0.3558236225572694	0.7937485987272108	1.7361462235897438	0.3048664821451417	0.6235262198057187	1.7999503572675533	0.38151390017597797	0.6423407087605343	1.796603696059183	0.33177937476251174	0.8926330871019873	1.7911631659046274	0.13856277860504207	0.6080190568839268	0.9723499821353975	0.15041692463087383	0.6965584993312154	1.3358559920805337	0.1431372676399533	0.8174078825796878	1.7094072922745673	0.1528409051891939	0.6199312922868851	1.7861891508841778	0.09579103250452428	0.6816231483858392	1.7892871285267886	0.16478210433980084	0.8704721520856589	1.7590863779052368	0.22222079647128953	0.47161138870470454	0.4497957549560722	0.2000010517431023	0.3373815076399671	0.2373729947403778	0.1666160936809921	0.3468559528910663	0.3510958047700847	0.38165472787351284	0.45076331485190146	0.5251650877797737	0.4274039403180617	0.49863468551418316	0.7810852097954315	0.3240664097293783	0.43126980022846884	0.9919486266478327	0.22473958586109047	0.4297185622963075	1.0552208220341794	0.22429250193933653	0.4304713583115592	1.0633953232520346	0.23645739809077587	0.4539429293898034	1.08808737480074	0.08924005303446292	0.47645695768314267	0.535421964433117	0.05654858682362027	0.5086081704324019	0.7883544377792595	0.16153371910837408	0.46661493351037103	0.9828572396301489	0.23520326477730977	0.4196784896338102	1.0411025611532487	0.23744948745614122	0.41974485341447676	1.0587135653747888	0.23086811154189288	0.43685855347362046	1.073721285658626
121	2.0166666666666666	0.3529486958699783	0.5918038848317302	0.9625648466587137	0.3502006906629401	0.7084868043687735	1.3525138181406227	0.355839510910978	0.7937392922032571	1.7361834379039485	0.30641081638105694	0.6272867472537763	1.801336697647391	0.3825428391150487	0.6426355884069617	1.7967497002547947	0.331315534059227	0.8902578753285867	1.7909855347531438	0.1385637630465123	0.6079216674780833	0.9717004557542077	0.15060402717727298	0.6972877194948258	1.3375966336357141	0.1431307499232526	0.817386200063742	1.7093493470700698	0.15282914049211632	0.6200272500490422	1.786145201721698	0.09578497598608418	0.6865060409119802	1.7906895168316708	0.16546154851642547	0.8702734035785793	1.75816198003676	0.22239888079082026	0.4804164258744038	0.4499763688346082	0.1992367291495841	0.3406564854555849	0.23679229059518206	0.1637681883517423	0.34944788534832905	0.35096929285934164	0.38219524826098494	0.45211748511807776	0.5259471942308273	0.4287339817496338	0.5021099892512644	0.7799137784733767	0.32437947264981376	0.42982407796213357	0.9917346709256639	0.22475290507246704	0.4298662968281823	1.0551692538145916	0.22430400419296892	0.4306027747790512	1.0634946865262502	0.23648748607692407	0.45387981809603417	1.0879524488048382	0.08925897986182385	0.47653893029595795	0.5354627497930688	0.05654476587051749	0.5086422657176769	0.7882754631014203	0.16149491118007844	0.46681451071423935	0.9827797590395586	0.2351731123699798	0.41969169191803746	1.0398540978907445	0.23743551258875198	0.41955169350326	1.0586912346329858	0.2305126094478003	0.4356373242114691	1.0734753001804904
122	2.033333333333333	0.3532753591317278	0.58948858336989	0.9597925283694089	0.3509630650624635	0.7091720965976853	1.3538214488563756	0.35584696385812403	0.7937079322149623	1.7362370350807832	0.3069232579822872	0.6288810449435022	1.8035389025682755	0.38240507344759606	0.6426824901403534	1.796807966313804	0.331194916234934	0.8897756746209341	1.7916299581572661	0.1385370926072879	0.6079821987610703	0.9706754592383642	0.15070888187459192	0.6975183866495769	1.3389317628840496	0.14311174430936782	0.81734746094367	1.7092784178675742	0.15285544056378736	0.6201625072777801	1.7862797132507136	0.09588738600322942	0.6900598294135356	1.7911960702368772	0.165189862185566	0.8717786802074716	1.758158610963224	0.22262697504241655	0.4871938925299051	0.45032723800095104	0.19835003396058398	0.341257862493897	0.23667441289761212	0.1608366813775453	0.3530931680859209	0.350698956767525	0.38234268452468767	0.4522036709896134	0.5259433270070477	0.42809893270975713	0.5033850730319462	0.7800046836063982	0.3251486206990284	0.4262685293255724	0.991271363262363	0.22477874709647877	0.42998363946192897	1.055118308300621	0.2243422345835724	0.4306340066262132	1.063526097116783	0.236569212136336	0.454113514997684	1.0882682269644377	0.08936459773577808	0.4765821079590142	0.5355411815711214	0.056542554831544634	0.5086242251366848	0.7882570805169299	0.16139881729493621	0.4670777065933738	0.9827519085830474	0.23527473103575092	0.41961137703298235	1.03810623453415	0.23744560228369307	0.4194277587304956	1.058678231110026	0.23035204463940936	0.4356334139242255	1.0734935787231767
123	2.05	0.3532906890379676	0.5887885038241751	0.9570997374023117	0.35129892074791846	0.7096472931862613	1.3555128321409464	0.3558495617528649	0.793671418042206	1.7362883542082401	0.3066183718784825	0.6291971770786364	1.805589798627998	0.381971675193668	0.6426194701986007	1.7968088105006776	0.33120878420357913	0.8906588987918406	1.7936492637039714	0.1384938118485512	0.6081198518484052	0.9699363517351679	0.15073927368050877	0.6974642278588374	1.3394878118841518	0.14309248124912582	0.8173095469268539	1.7092266754541632	0.15294401183335296	0.6204638119785754	1.786805410012285	0.09595232706202618	0.6912615145700841	1.7912345560930156	0.1640145664303064	0.8761677525019543	1.7594834930687722	0.2227276714439123	0.4900699779397425	0.450785813511686	0.1975072152108745	0.33982383134916433	0.2368724843244267	0.1588936540104913	0.35591718845688664	0.3504299105077283	0.3822758165588036	0.4515941282181116	0.5250288679848136	0.42575491723841785	0.5013097090938355	0.7810178174000176	0.32615668254530333	0.4216196747475823	0.9906811479855717	0.22482489697406635	0.42999634452630087	1.0551923126459073	0.2243999012647015	0.43062427598558184	1.063586243069273	0.2367563549104008	0.45472303240322404	1.089299652315209	0.0894910565051806	0.47650283844185215	0.5356065347179343	0.0565431002540009	0.5085550403232002	0.788298625423749	0.16138187167490034	0.466970995051448	0.9827281686894125	0.2354073851759333	0.4195894424428709	1.0372903670113869	0.23744191230673128	0.41939183203281266	1.058688625480757	0.23036405623425926	0.43595725563580257	1.0736242996532523
124	2.066666666666667	0.3531521840783741	0.588776515079958	0.9555197989851888	0.3510778853695009	0.7098334878314779	1.3567649116499743	0.35585099908620654	0.7936470265372996	1.7363242693777092	0.3060958943797044	0.6291451924047433	1.8061809954257795	0.3817245096493368	0.6425836273204371	1.7967843932450251	0.33167307213592134	0.8935117395726415	1.7968961154920298	0.13845898086698416	0.6082179362446994	0.9697532682755001	0.15073780947876572	0.6973779787332456	1.339538945728009	0.143085800766229	0.8172838083856228	1.7092137013606532	0.15306430125352372	0.6208668171930826	1.7875864500592211	0.09600570240843292	0.6908609364832232	1.7913326338597249	0.16246749361552326	0.8822553825031116	1.7615302926773926	0.2222294422028446	0.4903661124350665	0.45141605578795607	0.1964334704446451	0.3383370768652775	0.23706170081692768	0.15824423945692215	0.3570808205747289	0.3502718347001566	0.3817723741370579	0.44970224800838476	0.523429942644672	0.42349824557473303	0.49742358085075095	0.7820059921913518	0.32692765387867523	0.4180960990250072	0.9902369365636339	0.22489914030432198	0.42985219904440275	1.0556385593995263	0.2244673100468702	0.43060435957493476	1.0636806515384165	0.23700704963148383	0.4555205020616131	1.0907123986316403	0.08962420560348844	0.47622476640745615	0.5355969061504208	0.05655104991940913	0.508437793854876	0.7883706645211903	0.16175198602040936	0.46550921772880294	0.9825588216055751	0.23550728499303444	0.4196393067052202	1.0375953828168478	0.2374098043124128	0.41945329205418636	1.0587238613494288	0.23045231060350882	0.4362026798923976	1.07377765143205
